<svg viewBox="255.50863723608444 505.262 526.7408829174664 241.81799999999998" xmlns:xlink="http://www.w3.org/1999/xlink" xmlns="http://www.w3.org/2000/svg" style="max-height: 500px" width="526.7408829174664" height="241.81799999999998"><clipPath id="cl_3"><rect height="983" width="1024"/></clipPath><g clip-path="url(#cl_3)"><path d="M555.612 328.952C579.133 325.447 601.04 341.677 604.538 365.199C608.035 388.721 591.797 410.623 568.274 414.112C544.762 417.599 522.874 401.371 519.378 377.861C515.883 354.351 532.103 332.456 555.612 328.952ZM565.766 394.651C578.65 392.581 587.387 380.419 585.236 367.548C583.085 354.677 570.867 346.017 558.01 348.25C545.267 350.462 536.701 362.547 538.833 375.304C540.965 388.061 552.996 396.703 565.766 394.651Z" fill="#0E0A87"/><path d="M556.603 339.15C574.48 336.1 591.449 348.105 594.523 365.978C597.597 383.85 585.614 400.836 567.746 403.933C549.844 407.037 532.82 395.026 529.74 377.12C526.661 359.215 538.693 342.207 556.603 339.15ZM565.766 394.651C578.65 392.581 587.387 380.419 585.236 367.548C583.085 354.677 570.867 346.017 558.01 348.25C545.267 350.462 536.701 362.547 538.833 375.304C540.965 388.061 552.996 396.703 565.766 394.651Z" fill="#16A2EB"/><path d="M558.605 356.732C566.736 354.739 574.957 359.656 577.048 367.762C579.14 375.868 574.323 384.148 566.243 386.337C560.928 387.777 555.25 386.248 551.377 382.334C547.504 378.42 546.035 372.726 547.531 367.427C549.027 362.128 553.257 358.043 558.605 356.732ZM564.525 378.165C568.209 376.93 570.19 372.937 568.943 369.257C567.696 365.576 563.697 363.609 560.021 364.867C556.36 366.119 554.403 370.097 555.644 373.761C556.885 377.425 560.857 379.395 564.525 378.165Z" fill="#0E0A87"/><path d="M426.482 300.679C432.554 303.214 447.594 313.366 454.166 317.371L515.843 354.752C511.431 366.849 512.268 376.274 516.293 388.19L434.969 438.051C431.839 440.031 429.84 441.204 426.532 442.849C426.35 431.783 426.349 420.715 426.528 409.649C430.781 407.006 439.809 402.967 444.615 400.685L484.082 382.064C490.203 379.151 499.948 374.813 505.323 371.479C500.948 369 492.32 365.248 487.555 362.993L449.108 344.825C441.941 341.44 433.287 337.65 426.532 333.851C426.208 323.433 426.221 311.06 426.482 300.679Z" fill="#0E0A87"/><path d="M269.314 550.251C278.058 554.552 355.59 601.302 357.035 603.996C357.653 605.148 356.245 611.599 356.043 613.181C355.146 620.19 355.546 626.498 357.839 633.202C350.098 638.837 340.542 644.212 332.315 649.371L278.651 682.822C275.497 684.78 272.749 686.516 269.441 688.194C269.055 678.063 269.117 665.251 269.459 655.114C276.755 651 289.349 645.609 297.378 641.84C313.577 634.248 329.675 626.442 345.667 618.422C321.081 606.089 293.971 595.15 269.497 582.586C268.945 576.075 268.824 556.448 269.314 550.251Z" fill="#0E0A87"/><path d="M722.487 598.282C734.566 596.249 746.798 600.91 754.461 610.465C762.124 620.021 764.016 632.974 759.408 644.322C754.8 655.67 744.412 663.637 732.257 665.145C714.018 667.407 697.315 654.679 694.658 636.493C692 618.308 704.364 601.332 722.487 598.282ZM730.182 651.053C753.758 646.445 749.782 611.154 725.45 612.607C719.93 614.114 716.259 616.026 713.298 621.373C710.512 626.496 709.909 632.527 711.626 638.1C714.261 646.482 721.462 651.417 730.182 651.053Z" fill="#0E0A87"/><path d="M621.683 598.104C633.463 597.351 639.741 599.662 645.179 610.499C650.312 602.646 655.951 598.053 665.708 597.948C671.159 597.787 676.622 598.97 680.599 603.007C688.994 611.529 687.966 624.471 687.984 635.431C687.999 644.818 687.993 654.106 687.986 663.444C682.816 663.41 677.645 663.43 672.475 663.501C672.623 655.415 674.426 621.63 669.805 616.454C668.046 614.484 664.756 612.738 662.083 612.617C658.37 612.448 654.643 613.975 652.001 616.555C644.161 624.208 646.426 640.946 646.495 651.125L646.488 663.502L631.811 663.593C631.982 650.68 632.693 636.673 631.456 623.927C629.726 606.115 607.128 611.255 604.957 625.917C603.171 637.97 603.975 651.221 604.019 663.487L589.631 663.568C589.261 642.687 589.523 620.992 589.53 600.041C594.176 599.991 598.822 599.996 603.468 600.055L604.775 610.489C609.851 603.111 612.607 599.949 621.683 598.104Z" fill="#0E0A87"/><path d="M299.387 521.3C303.545 522.78 373.127 571.725 376.211 575C376.568 584.636 376.601 597.077 376.247 606.6C373.053 604.579 369.108 601.315 365.908 598.976C358.679 593.713 351.42 588.491 344.131 583.311C329.492 572.942 313.565 562.807 299.303 552.175C299.069 544.63 298.748 528.41 299.387 521.3Z" fill="#0E0A87"/><path d="M376.288 630.359C376.815 633.444 376.276 657.273 376.232 662.264C371.362 666.737 354.082 678.329 347.805 682.726C331.912 693.858 315.724 706.536 299.815 717.335C298.41 714.735 299.12 691.087 299.16 686.539C303.725 682.381 321.647 670.591 327.753 666.383C344.457 655.1 360.652 643.08 376.288 630.359Z" fill="#0E0A87"/><path d="M520.363 396.958C520.945 397.565 523.715 401.292 524.494 402.239C529.615 408.458 532.967 410.693 539.886 414.566C535.225 418.876 520.136 428.995 514.308 433.088L469.593 464.921C466.841 466.971 460.906 471.641 457.775 472.656C456.508 469.971 456.963 445.436 456.941 441.196L520.363 396.958Z" fill="#0E0A87"/><path d="M457.147 271.284C462.581 273.167 473.676 281.979 479.008 285.701C490.951 293.933 502.845 302.236 514.691 310.608C519.878 314.262 536.221 325.036 539.812 328.467C535.788 330.535 532.755 332.77 529.204 335.532C524.927 339.363 523.066 341.493 519.864 346.218C500.418 333.904 476.34 316.264 457.019 302.924C457.188 292.429 456.769 281.776 457.147 271.284Z" fill="#0E0A87"/><path d="M522.175 599.7C527.15 599.902 530.837 599.899 535.811 599.688C535.709 613.08 535.185 627.149 536.287 640.434C536.776 646.329 542.477 650.054 548.188 650.084C557.793 650.137 564.088 641.841 563.834 632.571C563.542 621.952 564.264 610.657 563.539 600.02C568.517 599.902 573.496 599.877 578.475 599.946L578.477 625.625C578.337 638.253 578.323 650.882 578.435 663.51L564.413 663.582C564.1 660.171 563.989 656.264 563.817 652.805C549.005 674.851 518.514 666.652 520.159 638.517C520.861 626.511 519.914 612.933 520.231 600.72C521.036 599.596 520.502 600.051 522.175 599.7Z" fill="#0E0A87"/><path d="M459.228 574.992C464.577 575.097 470.219 575.02 475.588 575.022C475.656 599.028 475.257 624.683 475.915 648.522C489.488 648.183 503.845 648.409 517.561 648.238C517.565 651.728 517.802 660.66 517.299 663.661L516.543 663.891L459.254 663.812C458.753 634.691 459.365 604.305 459.228 574.992Z" fill="#0E0A87"/><path d="M390.112 605.849C394.911 604.999 399.797 606.794 402.906 610.549C406.014 614.303 406.865 619.438 405.134 623.995C403.403 628.551 399.357 631.826 394.54 632.57C387.205 633.703 380.324 628.721 379.111 621.399C377.898 614.077 382.803 607.142 390.112 605.849ZM394.216 625.577C402.695 620.797 400.151 612.513 391.051 612.552C381.526 617.109 384.595 625.6 394.216 625.577Z" fill="#16A2EB"/><path d="M388.582 590.142C395.855 589.83 400.962 590.389 407.348 594.734C413.609 598.987 417.891 605.584 419.228 613.034C422.219 629.01 412.748 644.546 396.298 647.397C391.899 648.159 384.772 647.986 381.174 645.27C380.271 643.529 380.525 644.166 380.656 641.983L381.355 641.589C389.106 645.109 397.845 644.831 405.008 640.022C410.774 636.175 414.742 630.163 416.012 623.349C418.791 607.909 406.928 593.094 390.622 594.202C387.475 594.416 384.427 595.972 381.228 595.582C380.664 594.132 380.795 594.889 381.019 593.204C382.796 591.073 385.884 590.73 388.582 590.142Z" fill="#0E0A87"/><path d="M369.212 606.623C370.657 606.884 370.617 606.917 371.932 607.614C372.851 609.947 370.217 615.042 370.113 617.879C369.975 621.662 371.497 626.222 372.344 629.971C371.501 629.995 370.628 629.986 369.783 629.991C363.819 625.71 367.003 612.351 369.212 606.623Z" fill="#0E0A87"/></g></svg>