<svg
  width="100%"
  height="100%"
  viewBox="0 0 57 22"
  fill="none"
  xmlns="http://www.w3.org/2000/svg"
  style="color: #144fff;"
>
  <path fill-rule="evenodd" clip-rule="evenodd" d="M36.1707 0.304565C34.6356 0.304565 33.3867 1.55337 33.3867 3.08845V18.7112C33.3867 20.2463 34.6356 21.4951 36.1707 21.4951C37.7058 21.4951 38.9546 20.2463 38.9546 18.7112V3.08845C38.9546 1.55337 37.7058 0.304565 36.1707 0.304565Z" fill="currentColor"/>
  <path fill-rule="evenodd" clip-rule="evenodd" d="M30.3725 3.08857C30.3725 1.55349 29.1237 0.304688 27.5886 0.304688C26.0535 0.304688 24.8047 1.55349 24.8047 3.08857V18.7113C24.8047 20.2464 26.0535 21.4952 27.5886 21.4952C29.1237 21.4952 30.3725 20.2464 30.3725 18.7113V3.08857Z" fill="currentColor"/>
  <path fill-rule="evenodd" clip-rule="evenodd" d="M44.7468 7.35156C43.2117 7.35156 41.9629 8.60037 41.9629 10.1354V11.9747C41.9629 13.5098 43.2117 14.7586 44.7468 14.7586C46.2819 14.7586 47.5307 13.5098 47.5307 11.9747V10.1354C47.5307 8.60037 46.2819 7.35156 44.7468 7.35156Z" fill="currentColor"/>
  <path fill-rule="evenodd" clip-rule="evenodd" d="M53.323 4.28906C51.7879 4.28906 50.5391 5.53787 50.5391 7.07295V14.7305C50.5391 16.2655 51.7879 17.5144 53.323 17.5144C54.8581 17.5144 56.1069 16.2655 56.1069 14.7305V7.07295C56.1069 5.53787 54.8581 4.28906 53.323 4.28906Z" fill="currentColor"/>
  <path d="M10.8996 0C4.88799 0 0 4.8915 0 10.8994C0 16.9073 4.89156 21.7989 10.8996 21.7989C16.9075 21.7989 21.7991 16.9073 21.7991 10.8994C21.7991 4.8915 16.9075 0 10.8996 0ZM10.9103 16.4887C7.78999 16.4887 5.24938 13.9481 5.24938 10.8279C5.24938 7.7076 7.78999 5.16702 10.9103 5.16702C14.0306 5.16702 16.5712 7.7076 16.5712 10.8279C16.5712 13.9481 14.0306 16.4887 10.9103 16.4887Z" fill="currentColor"/>
</svg>